<?xml version="1.0" encoding="UTF-8"?>
<svg width="717px" height="128px" viewBox="0 0 717 128" version="1.1" xmlns="http://www.w3.org/2000/svg" xmlns:xlink="http://www.w3.org/1999/xlink">
    <!-- Generator: Sketch 52.6 (67491) - http://www.bohemiancoding.com/sketch -->
    <title>dailymotion</title>
    <desc>Created with Sketch.</desc>
    <g id="Page-1" stroke="none" stroke-width="1" fill="none" fill-rule="evenodd">
        <g id="Artboard" transform="translate(-1.000000, -2.000000)" fill="#FFFFFF">
            <g id="dailymotion" transform="translate(1.000000, 2.000000)">
                <path d="M579.765,43.1046 C586.94,35.9289 596.34,31.9368 606.042,31.9368 C616.401,31.9368 625.295,35.5247 632.42,42.2961 C640,49.4718 644.093,59.2752 644.093,68.9775 C644.093,79.741 640.505,88.6348 633.33,95.76 C626.053,103.037 617.007,106.928 606.244,106.928 C595.379,106.928 586.587,103.239 579.31,95.5073 C572.387,88.3316 568.85,79.1851 568.85,69.2302 C568.85,59.3257 572.69,50.1287 579.765,43.1046 Z M606.396,87.0178 C597.249,87.0178 589.568,79.1852 589.568,69.4828 C589.568,59.6794 597.097,51.8468 606.396,51.8468 C615.643,51.8468 623.223,59.6794 623.223,69.4828 C623.223,79.1852 615.694,87.0178 606.396,87.0178 Z M426.144,43.1046 C433.32,35.9289 442.719,31.9368 452.422,31.9368 C462.781,31.9368 471.675,35.5247 478.8,42.2961 C486.38,49.4718 490.473,59.2752 490.473,68.9775 C490.473,79.741 486.885,88.6348 479.709,95.76 C472.433,103.037 463.387,106.928 452.624,106.928 C441.759,106.928 432.966,103.239 425.69,95.5073 C418.767,88.3316 415.229,79.1851 415.229,69.2302 C415.28,59.3257 419.12,50.1287 426.144,43.1046 Z M452.826,87.0178 C443.679,87.0178 435.948,79.1852 435.998,69.4828 C435.998,59.6794 443.578,51.8468 452.826,51.8468 C462.073,51.8468 469.653,59.6794 469.653,69.4828 C469.653,79.1852 462.124,87.0178 452.826,87.0178 Z M198.089,104.957 L198.089,10.6119 L218.959,6.26608 L218.959,104.957 L198.089,104.957 Z M166.304,33.7055 L187.124,33.7055 L187.124,104.957 L166.304,104.957 L166.304,33.7055 Z M176.714,25.5697 C169.653,25.5697 163.929,19.8457 163.929,12.7848 C163.929,5.72397 169.653,0 176.714,0 C183.775,0 189.499,5.72397 189.499,12.7848 C189.499,19.8457 183.775,25.5697 176.714,25.5697 Z M262.266,75.193 L277.375,33.7055 L299.913,33.7055 L262.721,128 L241.649,128 L251.755,100.561 L225.63,33.7055 L248.875,33.7055 L262.266,75.193 Z M70.5946,69.028 C70.5946,77.1638 72.5148,84.6427 76.1532,91.212 L76.1532,104.704 L55.8389,104.704 L55.8389,96.7201 C49.6234,102.784 43.2562,105.058 34.7667,105.058 C26.1255,105.058 18.6972,102.279 12.4816,96.7201 C4.24477,89.4433 0,79.8926 0,68.7248 C0,58.5172 3.99211,49.3707 11.4204,42.195 C18.0403,35.7268 26.1255,32.3916 35.1709,32.3916 C43.7615,32.3916 50.3814,35.3225 55.182,41.437 L55.182,10.4098 L76.1532,6.06395 L76.1532,47.1473 L76.1532,47.1978 C72.5148,53.7671 70.5946,61.1449 70.5946,69.028 Z M39.4157,86.1587 C28.6522,86.1587 20.9712,78.5788 20.9712,68.6238 C20.9712,59.073 28.6522,50.9878 38.6072,50.9878 C48.4106,50.9878 55.9905,58.6688 55.9905,68.8764 C56.041,78.7304 48.4611,86.1587 39.4157,86.1587 Z M411.288,49.3707 C408.357,55.4347 406.74,62.1556 406.74,69.1291 C406.74,77.1638 408.66,84.6932 412.298,91.3636 L412.298,104.957 L391.883,104.957 L391.883,65.4402 C391.883,54.5251 387.992,51.8974 382.181,51.8974 C375.005,51.8974 369.75,55.182 369.75,67.2088 L369.75,104.957 L349.183,104.957 L349.183,65.4402 C349.183,59.3257 348.475,51.8974 339.379,51.8974 C328.818,51.8974 326.999,59.6794 326.999,67.4615 L326.999,104.957 L307.089,104.957 L307.089,33.7055 L326.039,33.7055 L326.039,43.2562 C330.031,36.5353 336.044,32.3916 345.797,32.3916 C359.643,32.3916 365.202,43.8121 365.202,43.8121 C365.202,43.8121 370.76,37.7481 375.662,35.1709 C380.21,32.7959 384.91,32.0884 390.367,32.5432 C397.088,33.0991 402.697,35.272 406.639,39.921 C408.913,42.5487 410.378,45.5807 411.288,49.3707 Z M524.684,6.26608 L524.684,34.0592 L534.133,34.0592 L534.133,54.6767 L524.684,54.6767 L524.684,104.957 L503.46,104.957 L503.46,54.6767 L494.465,54.6767 L494.465,34.0592 L503.46,34.0592 L503.46,10.6119 L524.684,6.26608 Z M553.74,25.5697 C546.679,25.5697 540.955,19.8457 540.955,12.7848 C540.955,5.72397 546.679,0 553.74,0 C560.801,0 566.525,5.72397 566.525,12.7848 C566.525,19.8457 560.801,25.5697 553.74,25.5697 Z M564.15,51.0383 C561.674,56.698 560.31,62.863 560.31,69.2807 C560.31,75.9511 561.623,82.2171 564.15,87.9779 L564.15,104.957 L543.33,104.957 L543.33,33.7055 L564.15,33.7055 L564.15,51.0383 Z M691.948,32.3411 C706.703,32.3411 716.254,41.6392 716.204,57.9613 L716.204195,104.906 L695.232,104.906 L695.232,66.2993 C695.232,56.3443 693.11,51.8468 685.025,51.8468 C676.838,51.8468 672.442,56.7485 672.442,66.2993 L672.442,104.906 L651.875,104.906 L651.875,33.655 L671.785,33.655 L671.533,43.2057 C675.878,36.0805 682.549,32.3411 691.948,32.3411 Z M135.024,96.9728 C128.809,103.087 122.441,105.311 113.952,105.311 C105.311,105.311 97.8823,102.531 91.6668,96.9728 C83.4299,89.696 79.1852,80.1453 79.1852,68.9775 C79.1852,58.7698 83.1773,49.6234 90.6056,42.4477 C97.2254,35.9289 105.311,32.6443 114.356,32.6443 C122.997,32.6443 129.617,35.5752 134.367,41.6897 L134.367,33.7055 L155.338,33.7055 L155.338,104.957 L135.024,104.957 L135.024,96.9728 Z M118.55,86.3608 C127.596,86.3608 135.125,78.9325 135.125,69.1291 C135.125,58.9214 127.545,51.2404 117.742,51.2404 C107.787,51.2404 100.106,59.3257 100.106,68.8764 C100.106,78.7809 107.837,86.3608 118.55,86.3608 Z" id="Shape"></path>
            </g>
        </g>
    </g>
</svg>