<svg width="716" height="128" viewBox="0 0 716 128" fill="none" xmlns="http://www.w3.org/2000/svg">
<g clip-path="url(#clip0)">
<rect width="716" height="128" fill="white"/>
<path fill-rule="evenodd" clip-rule="evenodd" d="M579.765 43.1046C586.94 35.9289 596.34 31.9368 606.042 31.9368C616.401 31.9368 625.295 35.5247 632.42 42.2961C640 49.4718 644.093 59.2752 644.093 68.9775C644.093 79.741 640.505 88.6348 633.33 95.76C626.053 103.037 617.007 106.928 606.244 106.928C595.379 106.928 586.587 103.239 579.31 95.5073C572.387 88.3316 568.85 79.1851 568.85 69.2302C568.85 59.3257 572.69 50.1287 579.765 43.1046ZM606.396 87.0178C597.249 87.0178 589.568 79.1852 589.568 69.4828C589.568 59.6794 597.097 51.8468 606.396 51.8468C615.643 51.8468 623.223 59.6794 623.223 69.4828C623.223 79.1852 615.694 87.0178 606.396 87.0178ZM426.144 43.1046C433.32 35.9289 442.719 31.9368 452.422 31.9368C462.781 31.9368 471.675 35.5247 478.8 42.2961C486.38 49.4718 490.473 59.2752 490.473 68.9775C490.473 79.741 486.885 88.6348 479.709 95.76C472.433 103.037 463.387 106.928 452.624 106.928C441.759 106.928 432.966 103.239 425.69 95.5073C418.767 88.3316 415.229 79.1851 415.229 69.2302C415.28 59.3257 419.12 50.1287 426.144 43.1046ZM452.826 87.0178C443.679 87.0178 435.948 79.1852 435.998 69.4828C435.998 59.6794 443.578 51.8468 452.826 51.8468C462.073 51.8468 469.653 59.6794 469.653 69.4828C469.653 79.1852 462.124 87.0178 452.826 87.0178ZM198.089 104.957V10.6119L218.959 6.26608V104.957H198.089ZM166.304 33.7055H187.124V104.957H166.304V33.7055ZM176.714 25.5697C169.653 25.5697 163.929 19.8457 163.929 12.7848C163.929 5.72397 169.653 0 176.714 0C183.775 0 189.499 5.72397 189.499 12.7848C189.499 19.8457 183.775 25.5697 176.714 25.5697ZM262.266 75.193L277.375 33.7055H299.913L262.721 128H241.649L251.755 100.561L225.63 33.7055H248.875L262.266 75.193ZM70.5946 69.028C70.5946 77.1638 72.5148 84.6427 76.1532 91.212V104.704H55.8389V96.7201C49.6234 102.784 43.2562 105.058 34.7667 105.058C26.1255 105.058 18.6972 102.279 12.4816 96.7201C4.24477 89.4433 0 79.8926 0 68.7248C0 58.5172 3.99211 49.3707 11.4204 42.195C18.0403 35.7268 26.1255 32.3916 35.1709 32.3916C43.7615 32.3916 50.3814 35.3225 55.182 41.437V10.4098L76.1532 6.06395V47.1473V47.1978C72.5148 53.7671 70.5946 61.1449 70.5946 69.028ZM39.4157 86.1587C28.6522 86.1587 20.9712 78.5788 20.9712 68.6238C20.9712 59.073 28.6522 50.9878 38.6072 50.9878C48.4106 50.9878 55.9905 58.6688 55.9905 68.8764C56.041 78.7304 48.4611 86.1587 39.4157 86.1587ZM411.288 49.3707C408.357 55.4347 406.74 62.1556 406.74 69.1291C406.74 77.1638 408.66 84.6932 412.298 91.3636V104.957H391.883V65.4402C391.883 54.5251 387.992 51.8974 382.181 51.8974C375.005 51.8974 369.75 55.182 369.75 67.2088V104.957H349.183V65.4402C349.183 59.3257 348.475 51.8974 339.379 51.8974C328.818 51.8974 326.999 59.6794 326.999 67.4615V104.957H307.089V33.7055H326.039V43.2562C330.031 36.5353 336.044 32.3916 345.797 32.3916C359.643 32.3916 365.202 43.8121 365.202 43.8121C365.202 43.8121 370.76 37.7481 375.662 35.1709C380.21 32.7959 384.91 32.0884 390.367 32.5432C397.088 33.0991 402.697 35.272 406.639 39.921C408.913 42.5487 410.378 45.5807 411.288 49.3707ZM524.684 6.26608V34.0592H534.133V54.6767H524.684V104.957H503.46V54.6767H494.465V34.0592H503.46V10.6119L524.684 6.26608ZM553.74 25.5697C546.679 25.5697 540.955 19.8457 540.955 12.7848C540.955 5.72397 546.679 0 553.74 0C560.801 0 566.525 5.72397 566.525 12.7848C566.525 19.8457 560.801 25.5697 553.74 25.5697ZM564.15 51.0383C561.674 56.698 560.31 62.863 560.31 69.2807C560.31 75.9511 561.623 82.2171 564.15 87.9779V104.957H543.33V33.7055H564.15V51.0383ZM691.948 32.3411C706.703 32.3411 716.254 41.6392 716.204 57.9613V104.906H695.232V66.2993C695.232 56.3443 693.11 51.8468 685.025 51.8468C676.838 51.8468 672.442 56.7485 672.442 66.2993V104.906H651.875V33.655H671.785L671.533 43.2057C675.878 36.0805 682.549 32.3411 691.948 32.3411ZM135.024 96.9728C128.809 103.087 122.441 105.311 113.952 105.311C105.311 105.311 97.8823 102.531 91.6668 96.9728C83.4299 89.696 79.1852 80.1453 79.1852 68.9775C79.1852 58.7698 83.1773 49.6234 90.6056 42.4477C97.2254 35.9289 105.311 32.6443 114.356 32.6443C122.997 32.6443 129.617 35.5752 134.367 41.6897V33.7055H155.338V104.957H135.024V96.9728ZM118.55 86.3608C127.596 86.3608 135.125 78.9325 135.125 69.1291C135.125 58.9214 127.545 51.2404 117.742 51.2404C107.787 51.2404 100.106 59.3257 100.106 68.8764C100.106 78.7809 107.837 86.3608 118.55 86.3608Z" fill="#232323"/>
</g>
<defs>
<clipPath id="clip0">
<rect width="716" height="128" fill="white"/>
</clipPath>
</defs>
</svg>
