<?xml version="1.0" encoding="UTF-8"?>
<svg width="291px" height="278px" viewBox="0 0 291 278" version="1.1" xmlns="http://www.w3.org/2000/svg" xmlns:xlink="http://www.w3.org/1999/xlink">
    <!-- Generator: Sketch 53.2 (72643) - https://sketchapp.com -->
    <title>social/github</title>
    <desc>Created with Sketch.</desc>
    <g id="social/github" stroke="none" stroke-width="1" fill="none" fill-rule="evenodd">
        <path d="M145.50118,0 C66.810267,0 3,63.8064879 3,142.519093 C3,205.487761 43.8309253,258.91 100.451004,277.755051 C107.572759,279.074323 110.187373,274.663377 110.187373,270.899087 C110.187373,267.500606 110.055227,256.273817 109.993873,244.364972 C70.3499069,252.986258 61.9845581,227.549569 61.9845581,227.549569 C55.5022977,211.076375 46.162368,206.69611 46.162368,206.69611 C33.2332436,197.850618 47.1369489,198.032342 47.1369489,198.032342 C61.4465328,199.037726 68.9812461,212.718974 68.9812461,212.718974 C81.6909129,234.507016 102.317574,228.208025 110.449307,224.566458 C111.728296,215.355157 115.421321,209.067966 119.496626,205.509001 C87.8451666,201.905195 54.5725523,189.684822 54.5725523,135.075475 C54.5725523,119.515622 60.1392258,106.801998 69.2549783,96.8213185 C67.7754088,93.2316726 62.8977851,78.7362055 70.6354378,59.1052554 C70.6354378,59.1052554 82.6017802,55.2748836 109.833409,73.7140052 C121.200373,70.5562496 133.390892,68.9726517 145.50118,68.9183704 C157.611468,68.9726517 169.811426,70.5562496 181.199627,73.7140052 C208.39822,55.2748836 220.348044,59.1052554 220.348044,59.1052554 C228.104575,78.7362055 223.224591,93.2316726 221.745022,96.8213185 C230.882012,106.801998 236.410929,119.515622 236.410929,135.075475 C236.410929,189.814625 203.074602,201.867434 171.34291,205.395719 C176.45415,209.818464 181.008487,218.491672 181.008487,231.788231 C181.008487,250.857487 180.843304,266.204935 180.843304,270.899087 C180.843304,274.691698 183.408363,279.135684 190.631588,277.736171 C247.220989,258.869879 288,205.46652 288,142.519093 C288,63.8064879 224.199172,0 145.50118,0" id="Fill-5" fill="#161514"></path>
    </g>
</svg>