<?xml version="1.0" encoding="UTF-8"?>
<svg width="291px" height="278px" viewBox="0 0 291 278" version="1.1" xmlns="http://www.w3.org/2000/svg" xmlns:xlink="http://www.w3.org/1999/xlink">
    <!-- Generator: Sketch 53.2 (72643) - https://sketchapp.com -->
    <title>community/doc</title>
    <desc>Created with Sketch.</desc>
    <g id="community/doc" stroke="none" stroke-width="1" fill="none" fill-rule="evenodd">
        <g id="open-book" transform="translate(0.000000, 28.000000)" fill="#000000" fill-rule="nonzero">
            <path d="M44.5141818,0.048010101 C44.5063434,0.048010101 44.4975253,0.048010101 44.4896869,0.048010101 C41.7374343,0.048010101 39.1488081,1.12088889 37.1941111,3.07068687 C35.2178586,5.0420404 34.129303,7.66691919 34.129303,10.461303 L34.129303,166.606808 C34.129303,172.332747 38.8058788,177.002465 44.5553333,177.017162 C68.7935758,177.07497 109.402283,182.126808 137.416667,211.443343 L137.416667,48.0326364 C137.416667,46.0916566 136.920889,44.2682525 135.985182,42.7593636 C112.992263,5.73083838 68.8072929,0.104838384 44.5141818,0.048010101 Z" id="Path"></path>
            <path d="M256.870697,166.606808 L256.870697,10.4603232 C256.870697,7.66593939 255.782141,5.04106061 253.805889,3.06970707 C251.851192,1.11990909 249.260606,0.047030303 246.511293,0.047030303 C246.502475,0.047030303 246.493657,0.047030303 246.485818,0.047030303 C222.193687,0.104838384 178.008717,5.73083838 155.014818,42.7593636 C154.079111,44.2682525 153.584313,46.0916566 153.584313,48.0326364 L153.584313,211.442364 C181.598697,182.125828 222.207404,177.07399 246.445646,177.016182 C252.194121,177.001485 256.870697,172.331768 256.870697,166.606808 Z" id="Path"></path>
            <path d="M280.587687,36.0575455 L273.037364,36.0575455 L273.037364,166.606808 C273.037364,181.226374 261.12596,193.147576 246.483859,193.183828 C225.924758,193.232818 192.025707,197.252929 168.017717,219.975424 C209.539596,209.80904 253.311091,216.417778 278.256747,222.102566 C281.371525,222.811939 284.590162,222.079051 287.085707,220.090061 C289.572434,218.10597 290.99902,215.140121 290.99902,211.956758 L290.99902,46.4688788 C291,40.7282424 286.328323,36.0575455 280.587687,36.0575455 Z" id="Path"></path>
            <path d="M17.9616566,166.606808 L17.9616566,36.0575455 L10.4113333,36.0575455 C4.67167677,36.0575455 0,40.7282424 0,46.4688788 L0,211.953818 C0,215.138162 1.42658586,218.10303 3.91331313,220.087121 C6.40689899,222.075131 9.62259596,222.81096 12.7422727,222.099626 C37.6879293,216.413859 81.460404,209.806101 122.980323,219.972485 C98.9733131,197.25097 65.0742626,193.231838 44.5151616,193.182848 C29.8740404,193.147576 17.9616566,181.226374 17.9616566,166.606808 Z" id="Path"></path>
        </g>
    </g>
</svg>