<?xml version="1.0" encoding="UTF-8"?>
<svg width="291px" height="278px" viewBox="0 0 291 278" version="1.1" xmlns="http://www.w3.org/2000/svg" xmlns:xlink="http://www.w3.org/1999/xlink">
    <!-- Generator: Sketch 53.2 (72643) - https://sketchapp.com -->
    <title>Artboard</title>
    <desc>Created with Sketch.</desc>
    <g id="Artboard" stroke="none" stroke-width="1" fill="none" fill-rule="evenodd">
        <g id="slack" transform="translate(8.000000, 1.000000)" fill="#000000" fill-rule="nonzero">
            <g id="Group" transform="translate(0.000000, 144.000000)">
                <path d="M58.5118644,29.7559322 C58.5118644,45.7610169 45.4372881,58.8355932 29.4322034,58.8355932 C13.4271186,58.8355932 0.352542373,45.7610169 0.352542373,29.7559322 C0.352542373,13.7508475 13.4271186,0.676271186 29.4322034,0.676271186 L58.5118644,0.676271186 L58.5118644,29.7559322 Z" id="Path"></path>
                <path d="M73.1644068,29.7559322 C73.1644068,13.7508475 86.2389831,0.676271186 102.244068,0.676271186 C118.249153,0.676271186 131.323729,13.7508475 131.323729,29.7559322 L131.323729,102.567797 C131.323729,118.572881 118.249153,131.647458 102.244068,131.647458 C86.2389831,131.647458 73.1644068,118.572881 73.1644068,102.567797 C73.1644068,102.567797 73.1644068,29.7559322 73.1644068,29.7559322 Z" id="Path"></path>
            </g>
            <g id="Group">
                <path d="M102.244068,58.5118644 C86.2389831,58.5118644 73.1644068,45.4372881 73.1644068,29.4322034 C73.1644068,13.4271186 86.2389831,0.352542373 102.244068,0.352542373 C118.249153,0.352542373 131.323729,13.4271186 131.323729,29.4322034 L131.323729,58.5118644 L102.244068,58.5118644 Z" id="Path"></path>
                <path d="M102.244068,73.1644068 C118.249153,73.1644068 131.323729,86.2389831 131.323729,102.244068 C131.323729,118.249153 118.249153,131.323729 102.244068,131.323729 L29.4322034,131.323729 C13.4271186,131.323729 0.352542373,118.249153 0.352542373,102.244068 C0.352542373,86.2389831 13.4271186,73.1644068 29.4322034,73.1644068 C29.4322034,73.1644068 102.244068,73.1644068 102.244068,73.1644068 Z" id="Path"></path>
            </g>
            <g id="Group" transform="translate(144.000000, 0.000000)">
                <path d="M73.4881356,102.244068 C73.4881356,86.2389831 86.5627119,73.1644068 102.567797,73.1644068 C118.572881,73.1644068 131.647458,86.2389831 131.647458,102.244068 C131.647458,118.249153 118.572881,131.323729 102.567797,131.323729 L73.4881356,131.323729 L73.4881356,102.244068 Z" id="Path"></path>
                <path d="M58.8355932,102.244068 C58.8355932,118.249153 45.7610169,131.323729 29.7559322,131.323729 C13.7508475,131.323729 0.676271186,118.249153 0.676271186,102.244068 L0.676271186,29.4322034 C0.676271186,13.4271186 13.7508475,0.352542373 29.7559322,0.352542373 C45.7610169,0.352542373 58.8355932,13.4271186 58.8355932,29.4322034 L58.8355932,102.244068 Z" id="Path"></path>
            </g>
            <g id="Group" transform="translate(144.000000, 144.000000)">
                <path d="M29.7559322,73.4881356 C45.7610169,73.4881356 58.8355932,86.5627119 58.8355932,102.567797 C58.8355932,118.572881 45.7610169,131.647458 29.7559322,131.647458 C13.7508475,131.647458 0.676271186,118.572881 0.676271186,102.567797 L0.676271186,73.4881356 L29.7559322,73.4881356 Z" id="Path"></path>
                <path d="M29.7559322,58.8355932 C13.7508475,58.8355932 0.676271186,45.7610169 0.676271186,29.7559322 C0.676271186,13.7508475 13.7508475,0.676271186 29.7559322,0.676271186 L102.567797,0.676271186 C118.572881,0.676271186 131.647458,13.7508475 131.647458,29.7559322 C131.647458,45.7610169 118.572881,58.8355932 102.567797,58.8355932 L29.7559322,58.8355932 Z" id="Path"></path>
            </g>
        </g>
    </g>
</svg>