<?xml version="1.0" encoding="utf-8"?>
<!-- Generator: Adobe Illustrator 16.0.0, SVG Export Plug-In . SVG Version: 6.00 Build 0)  -->
<!DOCTYPE svg PUBLIC "-//W3C//DTD SVG 1.1//EN" "http://www.w3.org/Graphics/SVG/1.1/DTD/svg11.dtd">
<svg version="1.1" id="Calque_1" xmlns="http://www.w3.org/2000/svg" xmlns:xlink="http://www.w3.org/1999/xlink" x="0px" y="0px"
	 width="638.357px" height="103.459px" viewBox="0 0 638.357 103.459" enable-background="new 0 0 638.357 103.459"
	 xml:space="preserve">
<g>
	<path fill="#252223" d="M11.2,81.06V40.74H0v-11.2h11.2V8.68h13.3v20.86h21.56v11.2H24.5V79.1c0,8.54,4.62,12.6,12.18,12.6
		c3.22,0,6.16-0.42,9.38-1.4v11.06c-3.5,1.12-7.7,1.82-12.6,1.82C19.18,103.18,11.2,96.459,11.2,81.06z"/>
	<path fill="#252223" d="M79.937,103.319c-13.16,0-22.4-7.84-22.4-22.68c0-7.14,2.1-12.46,5.74-16.24
		c4.76-4.62,11.76-7.42,27.44-7.42c4.34,0,8.54,0.42,12.04,0.84v-5.04c0-8.68-4.62-13.16-15.4-13.16c-7.28,0-14.56,1.96-21.42,4.9
		l-3.22-10.64c7.7-3.22,16.66-5.46,26.46-5.46c18.2,0,26.88,7.28,26.88,24.08v35.419l1.68,14.14h-11.34l-2.66-8.12
		C96.317,100.1,88.896,103.319,79.937,103.319z M102.757,84.84V67.9c-3.22-0.28-6.86-0.56-10.5-0.56c-12.32,0-16.1,1.82-18.9,4.62
		c-1.96,1.96-2.94,4.9-2.94,8.12c0,7.7,5.04,12.18,13.72,12.18C90.437,92.26,96.876,89.6,102.757,84.84z"/>
	<path fill="#252223" d="M136.636,102.06V29.54h10.08l2.52,12.04c6.58-7.98,14.7-13.02,26.04-12.88v13.58
		c-9.94,0.28-18.2,3.92-25.2,9.8v49.98H136.636z"/>
	<path fill="#252223" d="M194.454,81.06V40.74h-11.2v-11.2h11.2V8.68h13.3v20.86h21.56v11.2h-21.56V79.1
		c0,8.54,4.62,12.6,12.18,12.6c3.22,0,6.16-0.42,9.38-1.4v11.06c-3.5,1.12-7.7,1.82-12.6,1.82
		C202.434,103.18,194.454,96.459,194.454,81.06z"/>
	<path fill="#252223" d="M245.273,14.84V2.38h14.28v12.46H245.273z M245.693,102.06V29.54h13.3v72.52H245.693z"/>
	<path fill="#252223" d="M321.011,1.54V12.6c-3.08-0.84-6.86-1.54-10.64-1.54c-8.4,0-11.9,4.62-11.9,12.18v6.3h20.02v11.2h-20.02
		v61.32h-13.16V40.74h-11.9v-11.2h11.9v-6.3c0-14.7,7.28-23.24,23.24-23.24C312.891,0,317.371,0.56,321.011,1.54z"/>
	<path fill="#252223" d="M331.792,102.06V0.7h13.3V102.06H331.792z"/>
	<path fill="#252223" d="M362.03,66.08c0-22.96,13.02-38.22,30.939-38.22c18.76,0,30.38,15.54,30.38,38.64v4.9H375.19
		c1.119,12.6,8.819,21,20.859,21c6.72,0,14-2.24,20.58-6.02l3.92,10.08c-7.7,4.48-16.52,7-25.06,7
		C376.17,103.459,362.03,90.859,362.03,66.08z M410.33,60.76c-0.98-13.02-7.28-21.98-17.5-21.98c-10.08,0-16.8,9.1-17.78,21.98
		H410.33z"/>
	<path fill="#252223" d="M443.512,81.06V40.74h-11.2v-11.2h11.2V8.68h13.3v20.86h21.561v11.2h-21.561V79.1
		c0,8.54,4.62,12.6,12.18,12.6c3.221,0,6.16-0.42,9.381-1.4v11.06c-3.5,1.12-7.7,1.82-12.601,1.82
		C451.492,103.18,443.512,96.459,443.512,81.06z"/>
	<path fill="#252223" d="M498.53,81.06V40.74h-11.2v-11.2h11.2V8.68h13.3v20.86h21.561v11.2H511.83V79.1
		c0,8.54,4.62,12.6,12.181,12.6c3.22,0,6.159-0.42,9.38-1.4v11.06c-3.5,1.12-7.7,1.82-12.601,1.82
		C506.511,103.18,498.53,96.459,498.53,81.06z"/>
	<path fill="#252223" d="M544.31,66.08c0-22.96,13.02-38.22,30.939-38.22c18.76,0,30.38,15.54,30.38,38.64v4.9H557.47
		c1.119,12.6,8.819,21,20.859,21c6.72,0,14-2.24,20.58-6.02l3.92,10.08c-7.7,4.48-16.52,7-25.06,7
		C558.449,103.459,544.31,90.859,544.31,66.08z M592.609,60.76c-0.98-13.02-7.28-21.98-17.5-21.98c-10.08,0-16.8,9.1-17.78,21.98
		H592.609z"/>
</g>
<rect x="617.469" y="81.938" fill="#FEDD2F" width="20.889" height="20.889"/>
</svg>
