<?xml version="1.0" encoding="UTF-8"?>
<svg width="639px" height="104px" viewBox="0 0 639 104" version="1.1" xmlns="http://www.w3.org/2000/svg" xmlns:xlink="http://www.w3.org/1999/xlink">
    <!-- Generator: Sketch 52.6 (67491) - http://www.bohemiancoding.com/sketch -->
    <title>logos/Tartiflette-White</title>
    <desc>Created with Sketch.</desc>
    <g id="logos/Tartiflette-White" stroke="none" stroke-width="1" fill="none" fill-rule="evenodd">
        <g id="tartiflette" fill-rule="nonzero">
            <g id="Group" fill="#FFFFFF">
                <path d="M11.2,81.06 L11.2,40.74 L0,40.74 L0,29.54 L11.2,29.54 L11.2,8.68 L24.5,8.68 L24.5,29.54 L46.06,29.54 L46.06,40.74 L24.5,40.74 L24.5,79.1 C24.5,87.64 29.12,91.7 36.68,91.7 C39.9,91.7 42.84,91.28 46.06,90.3 L46.06,101.36 C42.56,102.48 38.36,103.18 33.46,103.18 C19.18,103.18 11.2,96.459 11.2,81.06 Z" id="Shape"></path>
                <path d="M79.937,103.319 C66.777,103.319 57.537,95.479 57.537,80.639 C57.537,73.499 59.637,68.179 63.277,64.399 C68.037,59.779 75.037,56.979 90.717,56.979 C95.057,56.979 99.257,57.399 102.757,57.819 L102.757,52.779 C102.757,44.099 98.137,39.619 87.357,39.619 C80.077,39.619 72.797,41.579 65.937,44.519 L62.717,33.879 C70.417,30.659 79.377,28.419 89.177,28.419 C107.377,28.419 116.057,35.699 116.057,52.499 L116.057,87.918 L117.737,102.058 L106.397,102.058 L103.737,93.938 C96.317,100.1 88.896,103.319 79.937,103.319 Z M102.757,84.84 L102.757,67.9 C99.537,67.62 95.897,67.34 92.257,67.34 C79.937,67.34 76.157,69.16 73.357,71.96 C71.397,73.92 70.417,76.86 70.417,80.08 C70.417,87.78 75.457,92.26 84.137,92.26 C90.437,92.26 96.876,89.6 102.757,84.84 Z" id="Shape"></path>
                <path d="M136.636,102.06 L136.636,29.54 L146.716,29.54 L149.236,41.58 C155.816,33.6 163.936,28.56 175.276,28.7 L175.276,42.28 C165.336,42.56 157.076,46.2 150.076,52.08 L150.076,102.06 L136.636,102.06 Z" id="Shape"></path>
                <path d="M194.454,81.06 L194.454,40.74 L183.254,40.74 L183.254,29.54 L194.454,29.54 L194.454,8.68 L207.754,8.68 L207.754,29.54 L229.314,29.54 L229.314,40.74 L207.754,40.74 L207.754,79.1 C207.754,87.64 212.374,91.7 219.934,91.7 C223.154,91.7 226.094,91.28 229.314,90.3 L229.314,101.36 C225.814,102.48 221.614,103.18 216.714,103.18 C202.434,103.18 194.454,96.459 194.454,81.06 Z" id="Shape"></path>
                <path d="M245.273,14.84 L245.273,2.38 L259.553,2.38 L259.553,14.84 L245.273,14.84 Z M245.693,102.06 L245.693,29.54 L258.993,29.54 L258.993,102.06 L245.693,102.06 Z" id="Shape"></path>
                <path d="M321.011,1.54 L321.011,12.6 C317.931,11.76 314.151,11.06 310.371,11.06 C301.971,11.06 298.471,15.68 298.471,23.24 L298.471,29.54 L318.491,29.54 L318.491,40.74 L298.471,40.74 L298.471,102.06 L285.311,102.06 L285.311,40.74 L273.411,40.74 L273.411,29.54 L285.311,29.54 L285.311,23.24 C285.311,8.54 292.591,3.55271368e-15 308.551,3.55271368e-15 C312.891,0 317.371,0.56 321.011,1.54 Z" id="Shape"></path>
                <polygon id="Shape" points="331.792 102.06 331.792 0.7 345.092 0.7 345.092 102.06"></polygon>
                <path d="M362.03,66.08 C362.03,43.12 375.05,27.86 392.969,27.86 C411.729,27.86 423.349,43.4 423.349,66.5 L423.349,71.4 L375.19,71.4 C376.309,84 384.009,92.4 396.049,92.4 C402.769,92.4 410.049,90.16 416.629,86.38 L420.549,96.46 C412.849,100.94 404.029,103.46 395.489,103.46 C376.17,103.459 362.03,90.859 362.03,66.08 Z M410.33,60.76 C409.35,47.74 403.05,38.78 392.83,38.78 C382.75,38.78 376.03,47.88 375.05,60.76 L410.33,60.76 Z" id="Shape"></path>
                <path d="M443.512,81.06 L443.512,40.74 L432.312,40.74 L432.312,29.54 L443.512,29.54 L443.512,8.68 L456.812,8.68 L456.812,29.54 L478.373,29.54 L478.373,40.74 L456.812,40.74 L456.812,79.1 C456.812,87.64 461.432,91.7 468.992,91.7 C472.213,91.7 475.152,91.28 478.373,90.3 L478.373,101.36 C474.873,102.48 470.673,103.18 465.772,103.18 C451.492,103.18 443.512,96.459 443.512,81.06 Z" id="Shape"></path>
                <path d="M498.53,81.06 L498.53,40.74 L487.33,40.74 L487.33,29.54 L498.53,29.54 L498.53,8.68 L511.83,8.68 L511.83,29.54 L533.391,29.54 L533.391,40.74 L511.83,40.74 L511.83,79.1 C511.83,87.64 516.45,91.7 524.011,91.7 C527.231,91.7 530.17,91.28 533.391,90.3 L533.391,101.36 C529.891,102.48 525.691,103.18 520.79,103.18 C506.511,103.18 498.53,96.459 498.53,81.06 Z" id="Shape"></path>
                <path d="M544.31,66.08 C544.31,43.12 557.33,27.86 575.249,27.86 C594.009,27.86 605.629,43.4 605.629,66.5 L605.629,71.4 L557.47,71.4 C558.589,84 566.289,92.4 578.329,92.4 C585.049,92.4 592.329,90.16 598.909,86.38 L602.829,96.46 C595.129,100.94 586.309,103.46 577.769,103.46 C558.449,103.459 544.31,90.859 544.31,66.08 Z M592.609,60.76 C591.629,47.74 585.329,38.78 575.109,38.78 C565.029,38.78 558.309,47.88 557.329,60.76 L592.609,60.76 Z" id="Shape"></path>
            </g>
            <polygon id="Rectangle-path" fill="#FEDD2F" points="617.469 81.938 638.358 81.938 638.358 102.827 617.469 102.827"></polygon>
        </g>
    </g>
</svg>