<?xml version="1.0" encoding="UTF-8"?>
<svg width="291px" height="278px" viewBox="0 0 291 278" version="1.1" xmlns="http://www.w3.org/2000/svg" xmlns:xlink="http://www.w3.org/1999/xlink">
    <title>Twitter</title>
    <desc>https://twitter.com/</desc>
    <g id="Artboard" stroke="none" stroke-width="1" fill="none" fill-rule="evenodd">
        <g id="Twitter_Logo_Blue" transform="translate(0.000000, 21.000000)" fill="#000000" fill-rule="nonzero">
            <path d="M91.51368,236 C201.32544,236 261.38784,145.196672 261.38784,66.4524342 C261.38784,63.8733223 261.38784,61.305828 261.21324,58.7499513 C272.897837,50.3145226 282.984178,39.8699155 291,27.9051667 C280.103552,32.7241766 268.544453,35.8844818 256.70856,37.2805871 C269.17202,29.8334833 278.500078,18.1204805 282.95676,4.32139535 C271.237113,11.262405 258.415521,16.1540823 245.04528,18.7853339 C226.538643,-0.855483178 197.131773,-5.66264222 173.314354,7.05943551 C149.496934,19.7815132 137.192241,46.8689089 143.30004,73.1325665 C95.2954664,70.7306179 50.5696981,48.1003482 20.2536,10.8737338 C4.40716888,38.1013108 12.501219,72.9334344 38.73792,90.4195871 C29.2366676,90.1385283 19.9425719,87.5803935 11.64,82.9610742 C11.64,83.2050442 11.64,83.4606319 11.64,83.7162196 C11.6477771,112.081722 31.6811873,136.512908 59.5386,142.12962 C50.7488821,144.522153 41.526638,144.871893 32.58036,143.15197 C40.4018339,167.426094 62.8161279,184.055104 88.35924,184.533937 C67.2179158,201.117301 41.1015327,210.119747 14.21244,210.092704 C9.46219754,210.083603 4.71657532,209.796542 0,209.233 C27.3032024,226.720734 59.071992,235.996711 91.51368,235.95353" id="Path"></path>
        </g>
    </g>
</svg>