<svg width="291" height="278" viewBox="0 0 291 278" xmlns="http://www.w3.org/2000/svg"><path d="M145.501 0C66.811 0 3 63.806 3 142.52c0 62.968 40.83 116.39 97.451 135.235 7.122 1.32 9.736-3.092 9.736-6.856 0-3.398-.132-14.625-.193-26.534-39.644 8.621-48.01-16.815-48.01-16.815-6.482-16.474-15.822-20.854-15.822-20.854-12.929-8.845.975-8.664.975-8.664 14.31 1.006 21.844 14.687 21.844 14.687 12.71 21.788 33.337 15.489 41.468 11.847 1.28-9.21 4.972-15.498 9.048-19.057-31.652-3.604-64.924-15.824-64.924-70.434 0-15.56 5.566-28.273 14.682-38.254-1.48-3.59-6.357-18.085 1.38-37.716 0 0 11.967-3.83 39.198 14.609 11.367-3.158 23.558-4.741 35.668-4.796 12.11.055 24.31 1.638 35.699 4.796 27.198-18.44 39.148-14.609 39.148-14.609 7.757 19.631 2.877 34.127 1.397 37.716 9.137 9.981 14.666 22.695 14.666 38.254 0 54.74-33.336 66.792-65.068 70.32 5.111 4.423 9.665 13.097 9.665 26.393 0 19.07-.165 34.417-.165 39.111 0 3.793 2.565 8.237 9.789 6.837C247.22 258.87 288 205.466 288 142.52 288 63.806 224.2 0 145.501 0" fill="#161514" fill-rule="evenodd"/></svg>