<svg width="291" height="278" viewBox="0 0 291 278" xmlns="http://www.w3.org/2000/svg"><path d="M44.514 28.048h-.024a10.262 10.262 0 00-7.296 3.023 10.369 10.369 0 00-3.065 7.39v156.146c0 5.726 4.677 10.395 10.426 10.41 24.239.058 64.847 5.11 92.862 34.426V76.033c0-1.941-.496-3.765-1.432-5.274-22.993-37.028-67.178-42.654-91.47-42.711zM256.87 194.607V38.46c0-2.794-1.088-5.419-3.064-7.39a10.266 10.266 0 00-7.295-3.023h-.025c-24.292.058-68.477 5.684-91.471 42.712-.936 1.51-1.43 3.333-1.43 5.274v163.41c28.014-29.317 68.622-34.369 92.86-34.427 5.75-.015 10.426-4.684 10.426-10.41z"/><path d="M280.588 64.058h-7.55v130.549c0 14.62-11.912 26.54-26.554 26.577-20.56.049-54.458 4.069-78.466 26.791 41.522-10.166 85.293-3.557 110.239 2.128a10.394 10.394 0 008.829-2.013 10.353 10.353 0 003.913-8.133V74.469c.001-5.74-4.67-10.411-10.411-10.411zM17.962 194.607V64.057h-7.55C4.671 64.058 0 68.729 0 74.47v165.485c0 3.184 1.427 6.149 3.913 8.133a10.384 10.384 0 008.83 2.013c24.945-5.686 68.717-12.294 110.237-2.128-24.007-22.721-57.906-26.74-78.465-26.79-14.641-.034-26.553-11.956-26.553-26.575z"/></svg>