<svg width="291" height="278" viewBox="0 0 291 278" xmlns="http://www.w3.org/2000/svg"><path d="M66.512 174.756c0 16.005-13.075 29.08-29.08 29.08s-29.08-13.075-29.08-29.08 13.075-29.08 29.08-29.08h29.08v29.08zm14.652 0c0-16.005 13.075-29.08 29.08-29.08s29.08 13.075 29.08 29.08v72.812c0 16.005-13.075 29.08-29.08 29.08s-29.08-13.075-29.08-29.08v-72.812zm29.08-115.244c-16.005 0-29.08-13.075-29.08-29.08s13.075-29.08 29.08-29.08 29.08 13.075 29.08 29.08v29.08h-29.08zm0 14.652c16.005 0 29.08 13.075 29.08 29.08s-13.075 29.08-29.08 29.08H37.432c-16.005 0-29.08-13.075-29.08-29.08s13.075-29.08 29.08-29.08h72.812zm115.244 29.08c0-16.005 13.075-29.08 29.08-29.08s29.08 13.075 29.08 29.08-13.075 29.08-29.08 29.08h-29.08v-29.08zm-14.652 0c0 16.005-13.075 29.08-29.08 29.08s-29.08-13.075-29.08-29.08V30.432c0-16.005 13.075-29.08 29.08-29.08s29.08 13.075 29.08 29.08v72.812zm-29.08 115.244c16.005 0 29.08 13.075 29.08 29.08s-13.075 29.08-29.08 29.08-29.08-13.075-29.08-29.08v-29.08h29.08zm0-14.652c-16.005 0-29.08-13.075-29.08-29.08s13.075-29.08 29.08-29.08h72.812c16.005 0 29.08 13.075 29.08 29.08s-13.075 29.08-29.08 29.08h-72.812z"/></svg>