<svg width="291" height="278" viewBox="0 0 291 278" xmlns="http://www.w3.org/2000/svg"><path d="M91.514 257c109.811 0 169.874-90.803 169.874-169.548 0-2.579 0-5.146-.175-7.702A121.346 121.346 0 0 0 291 48.905a119.35 119.35 0 0 1-34.291 9.376 59.816 59.816 0 0 0 26.248-32.96 119.787 119.787 0 0 1-37.912 14.464c-18.506-19.64-47.913-24.448-71.73-11.726-23.818 12.723-36.123 39.81-30.015 66.074C95.295 91.73 50.57 69.1 20.254 31.873 4.407 59.102 12.5 93.934 38.738 111.42a59.346 59.346 0 0 1-27.098-7.459v.755c.008 28.366 20.041 52.797 47.899 58.414a59.72 59.72 0 0 1-26.959 1.022c7.822 24.274 30.236 40.903 55.78 41.382a119.946 119.946 0 0 1-74.148 25.559c-4.75-.01-9.495-.296-14.212-.86a169.262 169.262 0 0 0 91.514 26.72"/></svg>